# xmcd
#
# Track frame offsets: 
#        150
#        14993
#        37740
#        57203
#        75968
#        95963
#        111345
#        128699
#        146636
#        164309
#        178085
#        195335
#        212620
#        227535
#        244472
#
# Disc length: 3489 seconds
#
# Revision: 1
# Processed by: cddbd v1.5.2PL0 Copyright (c) Steve Scherf et al.
# Submitted via: ExactAudioCopy v0.95b4
#
DISCID=cb0d9f0f
DTITLE=SOUNDS OF BLACKNESS - The Night Before Christmas II
DYEAR=2004
DGENRE=Gospel
TTITLE0=Joy of Christmas
TTITLE1=Season of Joy
TTITLE2=Do the Funky Chitlin'
TTITLE3=Super Fine Reindeer
TTITLE4=The Jolly One Is Here 2
TTITLE5=Holiday Love 2
TTITLE6=We're So Grateful
TTITLE7=For Christmas' Sake
TTITLE8=Silent Night
TTITLE9=Love Is Burn
TTITLE10=Holy Are You Lord
TTITLE11=All Through the Night
TTITLE12=Holiday Love 2 (Instrumental)
TTITLE13=All Through the Night (Instrumental)
TTITLE14=Holy Are You Lord (Instrumental)
EXTD=
EXTT0=
EXTT1=
EXTT2=
EXTT3=
EXTT4=
EXTT5=
EXTT6=
EXTT7=
EXTT8=
EXTT9=
EXTT10=
EXTT11=
EXTT12=
EXTT13=
EXTT14=
PLAYORDER=
